<?xml version="1.0" encoding="utf-8"?>
<!-- Generator: Adobe Illustrator 22.1.0, SVG Export Plug-In . SVG Version: 6.00 Build 0)  -->
<svg version="1.1" id="Ebene_1" xmlns="http://www.w3.org/2000/svg" xmlns:xlink="http://www.w3.org/1999/xlink" x="0px" y="0px"
	 viewBox="0 0 3000.1 2621.2" style="enable-background:new 0 0 3000.1 2621.2;" xml:space="preserve">
<style type="text/css">
	.st0{fill:#9B9694;}
</style>
<g>
	<g id="XMLID_2_">
		<g>
			<path class="st0" d="M2962.3,565.3c34.4,112.2,43.4,227.6,34.8,344.4c-12.2,168.8-68.4,323.4-156.8,466.8
				c-66.8,108.2-148.2,205.2-237,296c-117,120.2-245.6,227.6-374.4,334.8c-123.8,103.2-248,205.8-369.8,311
				c-89,77-171.6,161-248,250.8c-58.8,69-162,69.6-220.8,0.8c-107-124.8-226.8-236.4-352.2-342c-122.4-102.8-246.6-204-369.2-306.6
				c-105.2-88.2-207.2-179.6-301.4-279.8c-102.8-109.4-194-227-261.2-362.4c-51.6-103.2-85.8-211.8-99-326.6
				c-18.6-162-2.6-320.4,61.2-471.6c85.2-201.6,231.6-342,435.4-421.4c116-45.2,237-63,360.8-58.4c91.8,3.4,178.4,28.2,261.6,66.2
				c102.6,46.8,193.8,110.4,277.8,184.8c32.6,29,63.8,59.6,98.4,92c2.4-3.2,4.8-7.8,8.2-11c85.4-87.6,179-165,285.4-226
				c84-48.2,173-83,269-99.2c47.6-7.8,95.4-9.2,143.4-7c92,4.2,182.4,19.4,269,51.2C2724.1,143.1,2885.1,315.1,2962.3,565.3z"/>
		</g>
	</g>
</g>
</svg>
