<?xml version="1.0" encoding="utf-8"?>
<!-- Generator: Adobe Illustrator 22.1.0, SVG Export Plug-In . SVG Version: 6.00 Build 0)  -->
<svg version="1.1" id="Capa_1" xmlns="http://www.w3.org/2000/svg" xmlns:xlink="http://www.w3.org/1999/xlink" x="0px" y="0px"
	 viewBox="0 0 3000 4363.4" style="enable-background:new 0 0 3000 4363.4;" xml:space="preserve">
<style type="text/css">
	.st0{fill:#9B9694;}
</style>
<path class="st0" d="M2727.3,1909h-272.7V954.7C2454.7,428.3,2026.4,0,1500,0S545.3,428.3,545.3,954.7v954.7H272.7
	C122.1,1909,0,2031.1,0,2181.7v1909c0,150.6,122.1,272.7,272.7,272.7h2454.7c150.6,0,272.7-122,272.7-272.7v-1909
	C3000,2031.1,2877.9,1909,2727.3,1909z M1636.3,3384.2V3682c0,75.2-61.2,136.3-136.3,136.3s-136.3-61.2-136.3-136.3v-297.8
	C1205,3328,1091,3178,1091,3000c0-226.1,183.2-409,409-409c226.1,0,409,183.2,409,409C1909,3177.9,1795,3327.6,1636.3,3384.2z
	 M1091,1909V954.7c0-225.5,183.5-409,409-409s409,183.5,409,409v954.7h-818L1091,1909L1091,1909z"/>
</svg>
