<?xml version="1.0" encoding="utf-8"?>
<!-- Generator: Adobe Illustrator 22.1.0, SVG Export Plug-In . SVG Version: 6.00 Build 0)  -->
<svg version="1.1" id="Capa_1" xmlns="http://www.w3.org/2000/svg" xmlns:xlink="http://www.w3.org/1999/xlink" x="0px" y="0px"
	 viewBox="0 0 2998.1 2523.4" style="enable-background:new 0 0 2998.1 2523.4;" xml:space="preserve">
<style type="text/css">
	.st0{fill:#9B9694;}
</style>
<g>
	<path class="st0" d="M1810.5,433.6c138.7,87.9,236.3,234.4,253.9,404.3c56.6,27.3,119.1,41,185.5,41
		c242.2,0,439.5-197.3,439.5-439.5S2492.2,0,2250,0C2009.8,0,1814.5,193.4,1810.5,433.6z M1521.5,1334
		c242.2,0,439.5-197.3,439.5-439.5s-197.3-439.5-439.5-439.5S1082,652.3,1082,894.5S1279.3,1334,1521.5,1334z M1709,1363.3h-373
		c-310.5,0-562.5,252-562.5,562.5v457l2,7.8l31.2,9.8c296.9,91.8,554.7,123,765.6,123c414.1,0,654.3-117.2,668-125l29.3-15.6h3.9
		v-455.1C2271.5,1617.2,2019.5,1363.3,1709,1363.3z M2435.5,910.2h-371.1c-3.9,148.4-66.4,281.2-168,377
		c275.4,82,478.5,337.9,478.5,640.6v140.6c365.2-13.7,576.2-117.2,589.8-123l29.3-15.6h3.9v-457
		C3000,1162.1,2746.1,910.2,2435.5,910.2z M750,878.9c85.9,0,166-25.4,234.4-68.4c21.5-140.6,97.7-263.7,205.1-347.7
		c0-7.8,2-15.6,2-25.4C1189.5,197.3,992.2,0,750,0S310.5,197.3,310.5,439.5C310.5,683.6,507.8,878.9,750,878.9z M1144.5,1287.1
		c-99.6-95.7-162.1-228.5-168-375c-13.7-2-27.3-2-41-2h-373C252,910.2,0,1162.1,0,1472.7v457l2,7.8l31.2,9.8
		c238.3,74.2,449.2,109.4,634.8,119.1v-138.7C666,1625,869.1,1369.1,1144.5,1287.1z"/>
</g>
</svg>
