<?xml version="1.0" encoding="utf-8"?>
<!-- Generator: Adobe Illustrator 22.1.0, SVG Export Plug-In . SVG Version: 6.00 Build 0)  -->
<svg version="1.1" id="Ebene_1" xmlns="http://www.w3.org/2000/svg" xmlns:xlink="http://www.w3.org/1999/xlink" x="0px" y="0px"
	 viewBox="0 0 158.2 240" style="enable-background:new 0 0 158.2 240;" xml:space="preserve">
<style type="text/css">
	.st0{fill:#353535;}
</style>
<g>
	<g id="XMLID_1_">
		<g>
			<path class="st0" d="M158.1,120c-1.3,1.4-2.5,2.7-3.8,4C117.5,161.2,80.7,198.3,44,235.5c-1.4,1.4-2.5,3-3.7,4.5
				c-0.3,0-0.6,0-1,0c-13-13.8-25.9-27.6-39.2-41.9c25-24.9,51.4-51.4,78.2-78.1C51.5,93.2,25,66.8,0,41.8
				C13.4,27.6,26.3,13.8,39.3,0c0.3,0,0.7,0,1,0c1.1,1.4,2.1,2.9,3.4,4.2C80.5,41.4,117.3,78.6,154,115.7
				C155.3,117,156.5,118.3,158.1,120z"/>
		</g>
		<g>
		</g>
	</g>
</g>
</svg>
