<?xml version="1.0" encoding="utf-8"?>
<!-- Generator: Adobe Illustrator 22.1.0, SVG Export Plug-In . SVG Version: 6.00 Build 0)  -->
<svg version="1.1" id="Capa_1" xmlns="http://www.w3.org/2000/svg" xmlns:xlink="http://www.w3.org/1999/xlink" x="0px" y="0px"
	 viewBox="0 0 249.3 249.3" style="enable-background:new 0 0 249.3 249.3;" xml:space="preserve">
<style type="text/css">
	.st0{fill:#EEEEEE;}
</style>
<g>
	<path class="st0" d="M240.9,49.1l-75.5,75.6l75.5,75.6c11.2,11.2,11.2,29.5,0,40.7c-5.6,5.6-13,8.4-20.3,8.4
		c-7.4,0-14.7-2.8-20.3-8.4l-75.6-75.6l-75.6,75.6c-5.6,5.6-13,8.4-20.3,8.4c-7.4,0-14.7-2.8-20.3-8.4c-11.2-11.2-11.2-29.4,0-40.7
		L84,124.7L8.4,49.1C-2.8,37.9-2.8,19.7,8.4,8.4c11.2-11.2,29.4-11.2,40.7,0L124.7,84l75.6-75.6c11.2-11.2,29.4-11.2,40.7,0
		C252.1,19.7,252.1,37.9,240.9,49.1z"/>
</g>
</svg>
