<?xml version="1.0" encoding="utf-8"?>
<!-- Generator: Adobe Illustrator 22.1.0, SVG Export Plug-In . SVG Version: 6.00 Build 0)  -->
<svg version="1.1" id="Ebene_1" xmlns="http://www.w3.org/2000/svg" xmlns:xlink="http://www.w3.org/1999/xlink" x="0px" y="0px"
	 viewBox="0 0 1024 1024" style="enable-background:new 0 0 1024 1024;" xml:space="preserve">
<style type="text/css">
	.st0{fill:#353535;}
</style>
<g>
	<path class="st0" d="M483,1c0,19.8,0,39.6,0,60c-140.6,0-280.9,0-421.5,0c0,301.4,0,602.3,0,903.5c300.9,0,601.8,0,903.2,0
		c0-150.4,0-300.6,0-451.5c20.4,0,40.4,0,60.3,0c0,170.6,0,341.3,0,512c-341.2,0-682.5,0-1023.9,0c0-341.3,0-682.6,0-1024
		C161.7,1,322.4,1,483,1z"/>
	<path class="st0" d="M515.8,711.3c-55.6-55.5-111.4-111.3-167-167c125-125.1,250.3-250.5,375.2-375.4
		c55.8,55.7,111.6,111.5,167.1,166.9C766.2,460.8,640.9,586.2,515.8,711.3z"/>
	<path class="st0" d="M478.3,744c-88.4,33.2-177.1,66.5-267.2,100.3c33.7-89.9,67-178.8,100.1-267.3
		C367,632.6,422.5,688.2,478.3,744z"/>
	<path class="st0" d="M925.7,301.5c-55.6-55.6-111.1-111.3-166.4-166.6c27.6-27.5,55.4-55.2,82.8-82.5
		c55,55.1,110.8,110.9,166.3,166.5C981.4,245.8,953.6,273.6,925.7,301.5z"/>
</g>
</svg>
