<?xml version="1.0" encoding="utf-8"?>
<!-- Generator: Adobe Illustrator 22.1.0, SVG Export Plug-In . SVG Version: 6.00 Build 0)  -->
<svg version="1.1" id="Ebene_1" xmlns="http://www.w3.org/2000/svg" xmlns:xlink="http://www.w3.org/1999/xlink" x="0px" y="0px"
	 viewBox="0 0 426.1 426.1" style="enable-background:new 0 0 426.1 426.1;" xml:space="preserve">
<style type="text/css">
	.st0{fill:#EEEEEE;}
</style>
<g>
	<g id="XMLID_1_">
		<g>
			<path class="st0" d="M388.6,240.8c24,13.7,39.3,33.3,37.2,62.2c-1.8,24.4-16.2,41.3-37.1,52.8c-4.1,2.2-5.1,4.5-5.1,8.8
				c0.2,18.5,0.1,37,0.1,55.5c0,1.8,0,3.6,0,5.8c-14.3,0-28.2,0-42.7,0c0-1.7,0-3.5,0-5.2c0-19.3-0.1-38.6,0.1-58
				c0-3.1-0.9-4.5-3.7-6c-21.7-11.6-36-28.8-38.8-54c-1.5-13.8,2.8-26.3,10.4-37.7c7.2-10.7,16.5-19.2,28.1-24.8c3-1.5,4-3.1,4-6.4
				C341,158,341,82.2,341,6.4c0-2,0-3.9,0-6.4c14.5,0,28.3,0,42.7,0c0,2.2,0,4.1,0,6c0,75.5,0,150.9-0.1,226.4
				C383.6,236.6,384.9,238.6,388.6,240.8z M383.8,298.4c0-11.6-9.7-21.3-21.3-21.4c-11.8,0-21.4,9.6-21.4,21.3
				c0,11.7,9.6,21.4,21.3,21.4C374,319.7,383.8,310,383.8,298.4z"/>
			<path class="st0" d="M238.4,90.9c23.3,12.8,38.8,31.5,38.4,59.2c-0.4,26.3-15.5,44.3-37.7,56.6c-3.8,2.1-4.9,4.2-4.9,8.4
				c0.1,68.2,0.1,136.3,0.1,204.5c0,1.9,0,3.9,0,6.4c-14.5,0-28.2,0-42.5,0c0-2.1,0-3.8,0-5.6c0-68.7,0-137.3,0.1-206
				c0-3.8-1.1-5.7-4.6-7.6c-21.9-12-36.9-29.7-37.9-55.4c-1.1-27.9,14.2-46.9,37.6-60.1c3.5-2,4.9-3.8,4.9-7.9
				c-0.2-26.2-0.1-52.3-0.1-78.5c0-1.5,0-3,0-4.8c14.2,0,28.1,0,42.5,0c0,1.9,0,3.7,0,5.5c0,26.2,0.1,52.3-0.1,78.5
				C234.2,87.6,235.3,89.2,238.4,90.9z M213,170.3c11.9,0,21.2-9.3,21.2-21.2s-9.3-21.3-21.2-21.2c-11.9,0-21.2,9.3-21.3,21.2
				C191.8,160.9,201.1,170.2,213,170.3z"/>
			<path class="st0" d="M127.3,272.9c1.3,11.8-1.8,22.8-7.6,33c-7.2,12.8-17.4,22.7-30.6,29.2c-3.2,1.6-4.2,3.3-4.2,6.7
				c0.2,26.2,0.1,52.3,0.1,78.5c0,1.8,0,3.6,0,5.8c-14.5,0-28.3,0-42.8,0c0-2.2,0-4.1,0-6.1c0-25.8-0.1-51.6,0.1-77.5
				c0-3.7-1-5.7-4.5-7.6c-24.3-13.8-40-33.6-37.7-62.9c1.9-24.4,16.5-41.2,37.4-52.6c3.7-2,4.7-4.1,4.7-8
				c-0.1-68.3-0.1-136.6-0.1-204.9c0-2,0-3.9,0-6.3c14.3,0,28.2,0,42.8,0c0,2.1,0,4.2,0,6.3c0,68.3,0,136.6-0.1,204.9
				c0,3.9,1,5.9,4.7,8C110.7,231,124.6,248.1,127.3,272.9z M64,298.3c11.8-0.1,21.2-9.7,21.1-21.5c-0.1-11.7-9.8-21.1-21.6-21
				s-21.3,9.8-21.1,21.5C42.5,289.1,52.1,298.4,64,298.3z"/>
		</g>
	</g>
</g>
</svg>
