<?xml version="1.0" encoding="utf-8"?>
<!-- Generator: Adobe Illustrator 22.1.0, SVG Export Plug-In . SVG Version: 6.00 Build 0)  -->
<svg version="1.1" id="Capa_1" xmlns="http://www.w3.org/2000/svg" xmlns:xlink="http://www.w3.org/1999/xlink" x="0px" y="0px"
	 viewBox="0 0 313.2 525.2" style="enable-background:new 0 0 313.2 525.2;" xml:space="preserve">
<style type="text/css">
	.st0{fill:#EEEEEE;}
</style>
<g>
	<path class="st0" d="M163.8,43.4c0-23.9-19.3-43.4-43.3-43.4C96.6,0,77.1,19.3,77.1,43.4c0,23.8,19.5,43.3,43.3,43.3
		C144.5,86.7,163.8,67.2,163.8,43.4z M143.6,192.2l17.6,69.1l-60,109.4v154.4h43.3V404.7l56.1-74.9l69.1,195.4h43.3L219,155.9
		l50.9,15.9l0,88.4h43.3V134.9L182.4,94.2c-3.6-1-7.7-1.7-11.8-1.7c-15,0-28,8-35.2,20l-48.2,80.2H0l0,43.3h117.6L143.6,192.2z"/>
</g>
</svg>
