<?xml version="1.0" encoding="utf-8"?>
<!-- Generator: Adobe Illustrator 22.1.0, SVG Export Plug-In . SVG Version: 6.00 Build 0)  -->
<svg version="1.1" id="Ebene_1" xmlns="http://www.w3.org/2000/svg" xmlns:xlink="http://www.w3.org/1999/xlink" x="0px" y="0px"
	 viewBox="0 0 1182.1 1181.9" style="enable-background:new 0 0 1182.1 1181.9;" xml:space="preserve">
<style type="text/css">
	.st0{fill:#EEE;}
</style>
<g>
	<g id="XMLID_1_">
		<g>
			<path class="st0" d="M1157.5,201.2c16.5,20.6,24.7,44,24.6,71c-0.3,257.4-0.2,514.7-0.2,772.1c0,19.3-3.2,38.2-11.5,55.7
				c-25.4,53.2-67.9,81.6-126.8,81.7c-301.7,0.4-603.5,0.2-905.2,0.1c-8.6,0-17.2-0.8-25.7-2.1c-52.2-8.3-97.2-50.7-108.8-102.3
				c-1.6-7.3-2.6-14.7-3.8-22.1c0-309.5,0-619,0-928.5c0.2-1.1,0.6-2.2,0.7-3.3c2-21.3,8.3-41.2,20-59C48.3,22,87.8,0.1,138.5,0.1
				C395.6-0.1,652.7,0,909.8,0c2.1,0,4.2,0,6.4,0c17-0.1,32.8,4.4,47.4,13c15.9,9.4,30.3,20.8,44.1,32.9
				c36.2,31.6,70.3,65.4,103,100.6C1127.1,164.1,1142.5,182.5,1157.5,201.2z M1045.5,1089.9c0-150.7,0-301.5-0.1-452.2
				c0-5.3-0.8-10.8-2.5-15.8c-6.5-19.4-23.5-30.9-44.9-30.9c-193.7,0-387.5,0-581.2,0c-78.1,0-156.2,0-234.4,0
				c-26.2,0-46,19.9-46,46.1c0,151,0,302,0,453c0,3.8,0.4,7.8,1.2,11.5c5,20.8,23.1,34.8,44.9,34.8c136,0,272,0,408,0
				c136.1,0,272.2,0,408.3,0C1025.5,1136.3,1045.5,1116.4,1045.5,1089.9z M909,409.7c0.1-106.5,0-213,0-319.5
				c0-7.9-2.1-15.4-6.2-22.1c-9.5-15.4-23.5-22.7-41.6-22.7c-195.3,0.1-390.7,0-586,0c-1.1,0-2.2,0-3.4,0
				c-25.1,0.8-44.5,20.6-44.5,45.7c0,105.9,0,211.7,0,317.6c0,3.3,0.3,6.8,1.1,10c4.8,21.3,23.1,35.6,45.4,35.6
				c98.1,0,196.2,0,294.3,0c98.2,0,196.5,0,294.7,0C888.5,454.5,909,434.8,909,409.7z"/>
			<path class="st0" d="M818,91.2c0,105.9,0,211.6,0,317.8c-45.5,0-90.6,0-135.9,0c0-105.9,0-211.7,0-317.8
				C727.3,91.2,772.5,91.2,818,91.2z"/>
		</g>
	</g>
</g>
</svg>
