<?xml version="1.0" encoding="utf-8"?>
<!-- Generator: Adobe Illustrator 22.1.0, SVG Export Plug-In . SVG Version: 6.00 Build 0)  -->
<svg version="1.1" id="Ebene_1" xmlns="http://www.w3.org/2000/svg" xmlns:xlink="http://www.w3.org/1999/xlink" x="0px" y="0px"
	 viewBox="0 0 409.6 409.6" style="enable-background:new 0 0 409.6 409.6;" xml:space="preserve">
<style type="text/css">
	.st0{fill:#353535;}
</style>
<g>
	<path class="st0" d="M261,0.6c1.9,0.8,3.9,1.6,5.7,2.5c8,4.3,11.6,11.2,12.7,20c1.1,9.5,2.6,18.9,4,28.7c12.3,0,24.3-0.1,36.2,0
		c13.2,0.1,24.1,5,32.1,15.6c4.5,6,7,12.9,7.4,20.3c0.3,4.9,0.1,9.8,0.1,15c-102.2,0-204.3,0-306.5,0c-2.6-20,2.3-37.8,21.6-46.9
		c5.5-2.6,12-3.6,18.1-3.9c11.8-0.6,23.7-0.2,35.8-0.2c1.3-8.8,2.9-17.3,3.6-25.9c0.9-12.6,6.6-21.3,18.8-25.3
		C187.4,0.6,224.2,0.6,261,0.6z M154.2,51.5c34.7,0,68.9,0,103.3,0c-1.2-8.6-2.4-16.8-3.5-25.2c-32.2,0-64,0-96.2,0
		C156.5,34.7,155.4,43,154.2,51.5z"/>
	<path class="st0" d="M205.9,128.6c39.9,0,79.7,0,119.6,0c11.8,0,20.3,5,23.5,14.9c1.4,4.3,1.7,9.2,1.3,13.7
		c-4.4,49.9-8.9,99.8-13.5,149.7c-2.3,25.6-4.7,51.2-7,76.8c-1.4,15-13.3,26.2-28.5,26.5c-11.1,0.2-22.1,0-33.2,0
		c-51.7,0-103.4-0.3-155.2,0.1c-17.1,0.1-30.1-12-31.5-28.8c-3.8-47-8.4-94-12.6-140.9c-2.5-27.9-5.1-55.7-7.7-83.6
		c-1-11,1.7-20.4,12.1-25.5c4-2,8.9-2.8,13.5-2.8C126.4,128.5,166.2,128.6,205.9,128.6z M180.5,180c0,59.8,0,119.3,0,178.7
		c17.1,0,34,0,50.7,0c0-59.7,0-119.1,0-178.7C214.2,180,197.5,180,180.5,180z M116.2,358.8c12.9,0,25.5,0,38.1,0
		c0-59.7,0-119.2,0-178.7c-17.1,0-33.9,0-50.9,0C107.7,239.8,111.9,299.2,116.2,358.8z M257.3,180c0,59.8,0,119.3,0,178.8
		c12.8,0,25.3,0,38.1,0c4.3-59.6,8.5-119.1,12.8-178.8C291.1,180,274.3,180,257.3,180z"/>
</g>
</svg>
