<?xml version="1.0" encoding="utf-8"?>
<!-- Generator: Adobe Illustrator 22.1.0, SVG Export Plug-In . SVG Version: 6.00 Build 0)  -->
<svg version="1.1" id="Capa_1" xmlns="http://www.w3.org/2000/svg" xmlns:xlink="http://www.w3.org/1999/xlink" x="0px" y="0px"
	 viewBox="0 0 210.6 251" style="enable-background:new 0 0 210.6 251;" xml:space="preserve">
<style type="text/css">
	.st0{fill:#EEEEEE;}
</style>
<g>
	<path class="st0" d="M210.6,198.2l-0.8,1c-27.9,33.4-64.9,51.8-104.4,51.8S28.7,232.6,0.8,199.2l-0.8-1l0.2-1.3
		c5.4-35.1,23.7-63.3,51.6-79.4l2-1.1l1.6,1.7c13.2,13.8,30.9,21.4,49.9,21.4s36.7-7.6,49.9-21.4l1.6-1.7l2,1.1
		c27.9,16.1,46.2,44.3,51.6,79.4L210.6,198.2z M105.3,125.4c34.6,0,62.7-28.1,62.7-62.7S139.8,0,105.3,0S42.6,28.1,42.6,62.7
		C42.6,97.2,70.7,125.4,105.3,125.4z"/>
</g>
</svg>
