<?xml version="1.0" encoding="utf-8"?>
<!-- Generator: Adobe Illustrator 22.1.0, SVG Export Plug-In . SVG Version: 6.00 Build 0)  -->
<svg version="1.1" id="Capa_1" xmlns="http://www.w3.org/2000/svg" xmlns:xlink="http://www.w3.org/1999/xlink" x="0px" y="0px"
	 viewBox="0 0 1991.5 1500.8" style="enable-background:new 0 0 1991.5 1500.8;" xml:space="preserve">
<style type="text/css">
	.st0{fill:#9B9694;}
</style>
<g>
	<path class="st0" d="M1841.2,1197.8H638.8c-83,0-150.3,67.3-150.3,150.4c0,83,67.3,150.3,150.3,150.3h1202.4
		c83,0,150.3-67.3,150.3-150.3C1991.5,1265.2,1924.2,1197.8,1841.2,1197.8z"/>
	<path class="st0" d="M1841.2,599.3H638.8c-83,0-150.3,67.3-150.3,150.4c0,83,67.3,150.3,150.3,150.3h1202.4
		c83,0,150.3-67.3,150.3-150.3S1924.2,599.3,1841.2,599.3z"/>
	<path class="st0" d="M638.8,301.6h1202.4c83,0,150.3-67.3,150.3-150.4c0-83.1-67.3-150.3-150.3-150.3H638.8
		c-83,0-150.3,67.3-150.3,150.3C488.4,234.3,555.7,301.6,638.8,301.6z"/>
	<circle class="st0" cx="152.6" cy="152.6" r="152.6"/>
	<circle class="st0" cx="152.6" cy="749.7" r="152.6"/>
	<circle class="st0" cx="152.6" cy="1348.2" r="152.6"/>
</g>
</svg>
