<?xml version="1.0" encoding="utf-8"?>
<!-- Generator: Adobe Illustrator 22.1.0, SVG Export Plug-In . SVG Version: 6.00 Build 0)  -->
<svg version="1.1" id="Ebene_1" xmlns="http://www.w3.org/2000/svg" xmlns:xlink="http://www.w3.org/1999/xlink" x="0px" y="0px"
	 viewBox="0 0 2243.5 2243.5" style="enable-background:new 0 0 2243.5 2243.5;" xml:space="preserve">
<style type="text/css">
	.st0{fill:#9B9694;}
</style>
<g>
	<g id="XMLID_1_">
		<g>
			<path class="st0" d="M2243.5,1062.2c0,39.6,0,79.4,0,119c-1.6,13.5-3.4,27-4.4,40.8c-5.5,70.3-18.3,139.4-38,207.2
				c-70.1,241.3-205.8,438.2-406.3,589.5c-163.9,123.8-348.9,196.2-553.5,218.2c-23.1,2.5-46.2,4.4-69.4,6.6c-33.7,0-67.1,0-100.7,0
				c-4.6-0.7-8.9-1.8-13.5-2.1c-101-5.5-199.6-24-295.3-57c-232.1-79.7-419.9-220.7-561.1-421.7C87,1600.4,21.7,1419.8,4.4,1221.8
				c-1.1-13.5-3-27-4.4-40.5c0-40.5,0-80.8,0-121.3c0.7-3,2.1-5.7,2.1-8.7c2.7-61.8,11.4-122.7,26.1-182.7
				C106.9,549.7,288.4,307,573.2,143.1c138.5-79.7,288.7-125,448.2-138.7c13.7-1.1,27.2-3,40.7-4.3c39.6,0,79.4,0,119,0
				c21.5,2.3,43,4.6,64.6,6.6c78.5,8,155.2,24.5,229.8,50.1c278.1,95.2,488.8,271.7,631.4,528.4c75.5,135.5,118.8,281.6,132.1,436.3
				C2240.3,1035,2242.1,1048.5,2243.5,1062.2z M1833.7,1808.8c18.3-18.8,35.3-38.7,52.7-58.1c-64.8-110.1-148.8-200.8-252.3-274
				c-67.3-47.8-141.9-81.3-217-114.5c-32.7-14.7-65.7-29.5-102.3-46c5.7-4.3,10.1-6.9,13.5-10.3c39.4-39.6,78.8-78.8,117.4-118.8
				c117.2-121.1,161.6-264.6,126.4-429.5c-52-243.6-292.1-400.6-536.6-353.9C829,443,676.3,614.2,661.1,825.5
				c-9.2,126.6,27.9,239.5,112.4,334.2c47.2,52.9,100.3,100.5,150.6,150.2c3.4,3.4,7.6,6,12.6,9.8c-6,3.2-8.7,4.6-11.4,6
				c-48.3,22.9-96.1,46-144.7,68.2c-172.4,79-306.8,199.6-402.2,363.8c-4.8,8-4.8,13.1,1.8,20.4C535.9,1950,727.1,2057.6,956,2097.4
				c108.7,19,217.9,19.2,326.7,0.9C1497.9,2062.2,1681.5,1964.9,1833.7,1808.8z"/>
		</g>
	</g>
</g>
</svg>
