<?xml version="1.0" encoding="utf-8"?>
<!-- Generator: Adobe Illustrator 22.1.0, SVG Export Plug-In . SVG Version: 6.00 Build 0)  -->
<svg version="1.1" id="Capa_1" xmlns="http://www.w3.org/2000/svg" xmlns:xlink="http://www.w3.org/1999/xlink" x="0px" y="0px"
	 viewBox="0 0 187.5 189.5" style="enable-background:new 0 0 187.5 189.5;" xml:space="preserve">
<style type="text/css">
	.st0{enable-background:new    ;}
	.st1{fill:#9B9694;}
</style>
<g>
	<g class="st0">
		<path class="st1" d="M59.9,180.3c0.5,0.9,0.8,1.9,0.8,2.8c0,1.3-0.4,2.4-1.3,3.5c-1.1,1.3-2.7,1.9-4.8,1.9c-1.7,0-3.2-0.4-4.6-1.2
			c-5.1-2.9-7.6-8.7-7.6-17.6c0-2.5-0.8-4.5-2.5-6c-1.6-1.5-4-2.2-7.1-2.2H13.2V182c0,1.9-0.5,3.4-1.5,4.6c-1,1.2-2.4,1.8-4.1,1.8
			c-2,0-3.8-0.6-5.3-1.8C0.8,185.3,0,183.8,0,182v-60.8c0-1.8,0.6-3.3,1.8-4.6c1.2-1.2,2.8-1.8,4.6-1.8h30.3c3.6,0,7.1,1,10.3,2.9
			c3.2,2,5.8,4.7,7.7,8.1c1.9,3.4,2.9,7.3,2.9,11.6c0,3.5-0.9,6.9-2.8,10.3c-1.9,3.3-4.4,6-7.4,7.9c4.4,3.1,6.8,7.2,7.3,12.4
			c0.2,1.1,0.3,2.2,0.3,3.3c0.3,2.2,0.6,3.7,0.8,4.7c0.3,0.9,0.9,1.7,1.9,2.2C58.7,178.7,59.4,179.4,59.9,180.3z M39.9,148.9
			c1.2-1.2,2.2-2.8,2.9-4.8c0.8-2,1.2-4.2,1.2-6.5c0-2-0.4-3.8-1.2-5.4c-0.8-1.6-1.8-3-2.9-3.9c-1.2-1-2.4-1.5-3.7-1.5H13.2v23.9
			h23.1C37.5,150.7,38.7,150.1,39.9,148.9z"/>
		<path class="st1" d="M118.6,178.1c1.2,1.2,1.8,2.6,1.8,4.3c0,1.8-0.6,3.2-1.8,4.3c-1.2,1.1-2.8,1.7-4.6,1.7H78.7
			c-1.8,0-3.4-0.6-4.6-1.8c-1.2-1.2-1.8-2.8-1.8-4.6v-60.8c0-1.8,0.6-3.3,1.8-4.6c1.2-1.2,2.8-1.8,4.6-1.8H114
			c1.8,0,3.3,0.6,4.6,1.7c1.2,1.2,1.8,2.6,1.8,4.5c0,1.8-0.6,3.2-1.8,4.3c-1.2,1.1-2.7,1.6-4.6,1.6H85.5v17.9h23.8
			c1.8,0,3.3,0.6,4.6,1.7c1.2,1.2,1.8,2.6,1.8,4.5c0,1.8-0.6,3.2-1.8,4.3c-1.2,1.1-2.7,1.6-4.6,1.6H85.5v19.5H114
			C115.8,176.3,117.3,176.9,118.6,178.1z"/>
		<path class="st1" d="M187.4,123.7c0,1.5-0.5,2.9-1.6,4.3c-1.1,1.5-2.6,2.2-4.3,2.2c-1.2,0-2.4-0.3-3.6-0.9
			c-3.4-1.6-7.2-2.4-11.2-2.4c-4.9,0-9.2,1-12.8,3.1c-3.6,2.1-6.5,5-8.4,8.7c-2,3.8-2.9,8.1-2.9,12.9c0,8.3,2.2,14.6,6.7,18.8
			c4.5,4.3,10.3,6.4,17.5,6.4c4.3,0,8-0.8,11.2-2.4c1.3-0.6,2.4-0.8,3.4-0.8c1.8,0,3.4,0.8,4.6,2.3c1.1,1.3,1.6,2.8,1.6,4.3
			c0,1.1-0.3,2.1-0.8,3.1c-0.6,0.9-1.4,1.6-2.4,2.1c-5.5,2.7-11.3,4.1-17.5,4.1c-6.9,0-13.2-1.5-18.9-4.4
			c-5.8-2.9-10.4-7.2-13.8-12.9c-3.4-5.7-5.2-12.6-5.2-20.6c0-7.2,1.6-13.6,4.9-19.3c3.3-5.7,7.8-10.1,13.5-13.3
			c5.8-3.2,12.2-4.8,19.5-4.8c6.2,0,12,1.4,17.4,4.1C186.3,119.4,187.4,121.2,187.4,123.7z"/>
	</g>
	<circle class="st1" cx="90" cy="37.9" r="37.9"/>
</g>
</svg>
