<?xml version="1.0" encoding="utf-8"?>
<!-- Generator: Adobe Illustrator 22.1.0, SVG Export Plug-In . SVG Version: 6.00 Build 0)  -->
<svg version="1.1" id="Capa_1" xmlns="http://www.w3.org/2000/svg" xmlns:xlink="http://www.w3.org/1999/xlink" x="0px" y="0px"
	 viewBox="0 0 2060.6 1552.8" style="enable-background:new 0 0 2060.6 1552.8;" xml:space="preserve">
<style type="text/css">
	.st0{fill:#EEEEEE;}
</style>
<g>
	<path class="st0" d="M1905,1239.3H660.9c-85.9,0-155.6,69.7-155.6,155.6c0,85.9,69.6,155.6,155.6,155.6H1905
		c85.9,0,155.5-69.7,155.5-155.6C2060.6,1309.1,1990.9,1239.3,1905,1239.3z"/>
	<path class="st0" d="M1905,620.1H660.9c-85.9,0-155.6,69.6-155.6,155.6c0,85.9,69.6,155.6,155.6,155.6H1905
		c85.9,0,155.5-69.6,155.5-155.6C2060.6,689.8,1990.9,620.1,1905,620.1z"/>
	<path class="st0" d="M660.9,312.1H1905c85.9,0,155.5-69.6,155.5-155.6c0-85.9-69.6-155.6-155.5-155.6H660.9
		c-85.9,0-155.6,69.6-155.6,155.6C505.4,242.4,575,312.1,660.9,312.1z"/>
	<circle class="st0" cx="157.9" cy="157.9" r="157.9"/>
	<circle class="st0" cx="157.9" cy="775.7" r="157.9"/>
	<circle class="st0" cx="157.9" cy="1394.9" r="157.9"/>
</g>
</svg>
