<?xml version="1.0" encoding="utf-8"?>
<!-- Generator: Adobe Illustrator 22.1.0, SVG Export Plug-In . SVG Version: 6.00 Build 0)  -->
<svg version="1.1" id="Ebene_1" xmlns="http://www.w3.org/2000/svg" xmlns:xlink="http://www.w3.org/1999/xlink" x="0px" y="0px"
	 viewBox="0 0 2150.7 2150.7" style="enable-background:new 0 0 2150.7 2150.7;" xml:space="preserve">
<style type="text/css">
	.st0{fill:#EEEEEE;}
</style>
<g>
	<g id="XMLID_1_">
		<g>
			<path class="st0" d="M2150.7,1018.3c0,38,0,76.2,0,114.1c-1.5,12.9-3.3,25.9-4.2,39.1c-5.3,67.4-17.6,133.7-36.4,198.6
				c-67.2,231.3-197.3,420.1-389.5,565.1c-157.1,118.7-334.5,188.1-530.7,209.1c-22.2,2.4-44.3,4.2-66.5,6.4c-32.3,0-64.3,0-96.6,0
				c-4.4-0.7-8.6-1.8-12.9-2c-96.8-5.3-191.4-23-283.1-54.6c-222.5-76.4-402.5-211.6-537.9-404.2
				C83.4,1534.3,20.8,1361.1,4.2,1171.3c-1.1-12.9-2.9-25.9-4.2-38.8c0-38.8,0-77.5,0-116.3c0.7-2.9,2-5.5,2-8.3
				c2.6-59.3,11-117.6,25-175.1c75.5-305.7,249.5-538.3,522.5-695.5C682.3,60.8,826.3,17.3,979.2,4.2c13.2-1.1,26.1-2.9,39.1-4.2
				c38,0,76.2,0,114.1,0c20.6,2.2,41.3,4.4,61.9,6.4c75.3,7.7,148.8,23.5,220.3,48.1c266.6,91.3,468.6,260.5,605.3,506.5
				c72.4,129.9,113.9,269.9,126.6,418.3C2147.7,992.2,2149.4,1005.1,2150.7,1018.3z M1757.9,1734c17.6-18,33.8-37.1,50.5-55.7
				c-62.1-105.6-142.7-192.5-241.8-262.7c-64.5-45.9-136.1-77.9-208.1-109.7c-31.4-14-63-28.3-98.1-44.1c5.5-4.2,9.7-6.6,12.9-9.9
				c37.7-38,75.5-75.5,112.6-113.9c112.4-116.1,154.9-253.7,121.1-411.7c-49.8-233.5-280-384.1-514.4-339.3
				c-198,37.7-344.3,201.9-358.8,404.5c-8.8,121.4,26.8,229.6,107.8,320.4c45.2,50.7,96.1,96.3,144.4,144c3.3,3.3,7.2,5.7,12.1,9.4
				c-5.7,3.1-8.3,4.4-11,5.7c-46.3,21.9-92.2,44.1-138.7,65.4C583.1,1412,454.3,1527.7,362.8,1685c-4.6,7.7-4.6,12.5,1.8,19.5
				c149.2,164.8,332.5,268,551.9,306.1c104.2,18.2,208.9,18.4,313.2,0.9C1435.9,1976.9,1611.9,1883.6,1757.9,1734z"/>
		</g>
	</g>
</g>
</svg>
