<?xml version="1.0" encoding="utf-8"?>
<!-- Generator: Adobe Illustrator 22.1.0, SVG Export Plug-In . SVG Version: 6.00 Build 0)  -->
<svg version="1.1" id="Capa_1" xmlns="http://www.w3.org/2000/svg" xmlns:xlink="http://www.w3.org/1999/xlink" x="0px" y="0px"
	 viewBox="0 0 178.1 180" style="enable-background:new 0 0 178.1 180;" xml:space="preserve">
<style type="text/css">
	.st0{enable-background:new    ;}
	.st1{fill:#EEEEEE;}
</style>
<g>
	<g class="st0">
		<path class="st1" d="M57,171.3c0.5,0.9,0.8,1.8,0.8,2.7c0,1.2-0.4,2.3-1.2,3.3c-1,1.2-2.5,1.8-4.6,1.8c-1.6,0-3.1-0.4-4.4-1.1
			c-4.8-2.7-7.2-8.3-7.2-16.7c0-2.4-0.8-4.3-2.3-5.7c-1.6-1.4-3.8-2.1-6.8-2.1H12.5v19.4c0,1.8-0.5,3.3-1.5,4.4
			c-1,1.1-2.2,1.7-3.8,1.7c-1.9,0-3.6-0.6-5.1-1.8c-1.4-1.2-2.1-2.6-2.1-4.3v-57.8c0-1.7,0.6-3.2,1.8-4.3c1.2-1.2,2.6-1.8,4.4-1.8
			h28.8c3.5,0,6.7,0.9,9.8,2.8c3.1,1.9,5.5,4.4,7.3,7.7c1.8,3.3,2.8,6.9,2.8,11c0,3.3-0.9,6.6-2.7,9.8c-1.8,3.2-4.1,5.7-7,7.5
			c4.2,2.9,6.5,6.9,6.9,11.8c0.2,1.1,0.3,2.1,0.3,3.1c0.3,2.1,0.5,3.6,0.8,4.5c0.3,0.9,0.9,1.6,1.8,2
			C55.8,169.7,56.5,170.4,57,171.3z M37.9,141.5c1.1-1.1,2.1-2.7,2.8-4.6c0.7-1.9,1.1-3.9,1.1-6.2c0-1.9-0.4-3.6-1.1-5.1
			c-0.7-1.6-1.7-2.8-2.8-3.8c-1.1-0.9-2.3-1.4-3.5-1.4H12.5v22.7h21.9C35.6,143.2,36.8,142.6,37.9,141.5z"/>
		<path class="st1" d="M112.6,169.2c1.2,1.2,1.8,2.5,1.8,4c0,1.7-0.6,3-1.8,4.1c-1.2,1.1-2.6,1.6-4.3,1.6H74.8
			c-1.7,0-3.2-0.6-4.4-1.8c-1.2-1.2-1.8-2.6-1.8-4.3v-57.8c0-1.7,0.6-3.2,1.8-4.3c1.2-1.2,2.6-1.8,4.4-1.8h33.5
			c1.7,0,3.2,0.5,4.3,1.7c1.2,1.1,1.8,2.5,1.8,4.2c0,1.7-0.6,3-1.7,4c-1.1,1-2.6,1.6-4.4,1.6H81.2v17h22.6c1.7,0,3.2,0.5,4.3,1.7
			c1.2,1.1,1.8,2.5,1.8,4.2c0,1.7-0.6,3-1.7,4c-1.1,1-2.6,1.6-4.4,1.6H81.2v18.5h27.1C110,167.5,111.5,168.1,112.6,169.2z"/>
		<path class="st1" d="M178,117.5c0,1.4-0.5,2.8-1.5,4.1c-1.1,1.4-2.4,2.1-4.1,2.1c-1.1,0-2.3-0.3-3.4-0.9
			c-3.3-1.5-6.8-2.3-10.6-2.3c-4.7,0-8.7,1-12.2,2.9c-3.5,2-6.1,4.7-8,8.3c-1.9,3.6-2.8,7.7-2.8,12.2c0,7.9,2.1,13.8,6.4,17.9
			c4.2,4.1,9.8,6.1,16.6,6.1c4.1,0,7.6-0.8,10.6-2.3c1.2-0.5,2.3-0.8,3.2-0.8c1.7,0,3.2,0.7,4.4,2.2c1,1.3,1.5,2.6,1.5,4.1
			c0,1.1-0.3,2-0.8,2.9c-0.5,0.9-1.3,1.5-2.3,2c-5.2,2.6-10.7,3.9-16.6,3.9c-6.5,0-12.5-1.4-18-4.2c-5.5-2.8-9.8-6.8-13.1-12.2
			c-3.3-5.4-4.9-11.9-4.9-19.6c0-6.8,1.5-12.9,4.7-18.3c3.1-5.4,7.4-9.6,12.8-12.7c5.5-3,11.6-4.5,18.5-4.5c5.9,0,11.4,1.3,16.5,3.9
			C177,113.5,178,115.2,178,117.5z"/>
	</g>
	<circle class="st1" cx="85.5" cy="36" r="36"/>
</g>
</svg>
