<?xml version="1.0" encoding="utf-8"?>
<!-- Generator: Adobe Illustrator 22.1.0, SVG Export Plug-In . SVG Version: 6.00 Build 0)  -->
<svg version="1.1" id="Capa_1" xmlns="http://www.w3.org/2000/svg" xmlns:xlink="http://www.w3.org/1999/xlink" x="0px" y="0px"
	 viewBox="0 0 2079 2080" style="enable-background:new 0 0 2079 2080;" xml:space="preserve">
<style type="text/css">
	.st0{fill:#EEEEEE;}
	.st1{fill:none;stroke:#EEEEEE;stroke-width:259;stroke-miterlimit:10;}
</style>
<g>
	<path class="st0" d="M2048,1899.5l-489-489.1c-43.7,55.6-93.9,105.8-149.5,149.5l489.1,489.1c41.3,41.3,108.2,41.3,149.5,0
		C2089.3,2007.7,2089.3,1940.8,2048,1899.5z"/>
	<path class="st0" d="M921.6,507.7c-175.2,0-317.1,151.5-317.1,338.3s317.1,507.4,317.1,507.4s317.1-320.6,317.1-507.4
		S1096.7,507.7,921.6,507.7z M921.6,965.8c-77.8,0-141-63.1-141-141s63.1-141,141-141s141,63.1,141,141S999.4,965.8,921.6,965.8z"/>
	<circle class="st1" cx="915.5" cy="915.5" r="786"/>
</g>
</svg>
