<?xml version="1.0" encoding="utf-8"?>
<!-- Generator: Adobe Illustrator 22.1.0, SVG Export Plug-In . SVG Version: 6.00 Build 0)  -->
<svg version="1.1" id="Capa_1" xmlns="http://www.w3.org/2000/svg" xmlns:xlink="http://www.w3.org/1999/xlink" x="0px" y="0px"
	 viewBox="0 0 2115.9 2117" style="enable-background:new 0 0 2115.9 2117;" xml:space="preserve">
<style type="text/css">
	.st0{fill:#9B9694;}
	.st1{fill:none;stroke:#9B9694;stroke-width:259;stroke-miterlimit:10;}
</style>
<path class="st0" d="M2084.3,1933.1L1586,1434.7c-44.5,56.7-95.7,107.8-152.3,152.3l498.3,498.3c42.1,42.1,110.3,42.1,152.3,0
	C2126.5,2043.3,2126.4,1975.1,2084.3,1933.1z"/>
<path class="st0" d="M936.6,514.9c-178.5,0-323.2,154.3-323.2,344.7c0,190.4,323.2,517,323.2,517s323.1-326.7,323.1-517
	C1259.7,669.2,1115.1,514.9,936.6,514.9z M936.6,981.6c-79.3,0-143.6-64.3-143.6-143.6c0-79.3,64.3-143.6,143.6-143.6
	s143.6,64.3,143.6,143.6C1080.2,917.3,1015.9,981.6,936.6,981.6z"/>
<circle class="st1" cx="930.4" cy="930.4" r="800.9"/>
</svg>
